<svg width="160" height="26" viewBox="0 0 160 26" fill="none" xmlns="http://www.w3.org/2000/svg">
<path d="M8.71149 12.3331L11.921 1.67954H17.0955L10.5619 20.9449C9.81953 22.855 9.01716 24.1668 8.15474 24.8803C7.30324 25.5938 6.27708 25.9671 5.07625 26H4.55225L3.406 25.9341L3.32412 21.9164C3.43329 21.9603 3.78808 21.9823 4.3885 21.9823C4.99983 21.9823 5.45833 21.845 5.764 21.5706C6.08058 21.2962 6.35349 20.6814 6.58274 19.7264L6.81199 18.8537L0 1.67954H5.15812L8.71149 12.3331Z" fill="black"/>
<path d="M26.2655 13.107C26.2655 11.8007 25.7742 11.1476 24.7917 11.1476C24.2568 11.1476 23.8365 11.3067 23.5309 11.6251C23.2252 11.9324 23.0724 12.3825 23.0724 12.9753H18.4382C18.4382 11.3616 19.0059 10.0498 20.1412 9.0399C21.2766 8.02998 22.7449 7.52502 24.5461 7.52502C26.522 7.52502 28.0722 7.98058 29.1966 8.8917C30.321 9.79185 30.8832 11.0652 30.8832 12.7118C30.8832 13.5022 30.6813 14.2322 30.2774 14.9018C29.8734 15.5605 29.3112 16.0874 28.5907 16.4826C30.2937 17.2071 31.1452 18.5848 31.1452 20.6156C31.1452 22.2402 30.5448 23.5411 29.344 24.518C28.1431 25.495 26.5384 25.9835 24.5297 25.9835C22.663 25.9835 21.1401 25.4786 19.9611 24.4687C18.793 23.4478 18.209 22.0866 18.209 20.3851H22.8431C22.8431 21.0108 23.0178 21.4993 23.3671 21.8505C23.7164 22.2018 24.1913 22.3775 24.7917 22.3775C25.3594 22.3775 25.7906 22.1908 26.0854 21.8176C26.3801 21.4334 26.5275 20.912 26.5275 20.2533C26.5275 18.8592 25.9871 18.1402 24.9064 18.0963H22.5975V15.0006H24.7917C25.7742 14.9897 26.2655 14.3585 26.2655 13.107Z" fill="black"/>
<path d="M41.7071 8.82584C43.6175 8.82584 45.1295 9.58328 46.243 11.0982C47.3674 12.6021 47.9296 14.6548 47.9296 17.2565V17.5035C47.9296 20.0942 47.291 22.1579 46.0137 23.6947C44.7365 25.2316 43.0007 26 40.8065 26C38.6013 26 36.8601 25.1657 35.5828 23.4971C34.3165 21.8286 33.6833 19.5398 33.6833 16.6308V15.8898C33.7052 11.916 34.2728 8.78193 35.3863 6.48765C36.4998 4.18239 38.1756 2.73886 40.4135 2.15706C41.4833 1.82774 42.171 1.51488 42.4767 1.21849C42.7824 0.911125 42.9352 0.504961 42.9352 0H46.636C46.636 1.75639 46.243 3.06819 45.457 3.9354C44.671 4.79164 43.2682 5.4448 41.2486 5.89487C40.1242 6.18028 39.2563 6.72366 38.645 7.52502C38.0336 8.31539 37.6243 9.41313 37.4168 10.8182C38.6504 9.48997 40.0805 8.82584 41.7071 8.82584ZM40.7901 12.6954C39.2072 12.6954 38.3884 14.095 38.3338 16.8942V17.5035C38.3338 19.1391 38.5413 20.3192 38.9561 21.0437C39.3818 21.7682 39.9986 22.1305 40.8065 22.1305C42.4112 22.1305 43.2409 20.6979 43.2955 17.8328V17.1577C43.2955 14.1828 42.4603 12.6954 40.7901 12.6954Z" fill="black"/>
<path d="M57.9183 25.9835C55.5385 25.9835 53.6827 25.27 52.3508 23.8429C51.019 22.4159 50.3531 20.3741 50.3531 17.7175V16.3015C50.3531 13.4912 50.9644 11.3232 52.1871 9.79734C53.4097 8.27148 55.1619 7.50855 57.4435 7.50855C59.6705 7.50855 61.3462 8.22757 62.4706 9.66561C63.595 11.0927 64.1681 13.2113 64.1899 16.0215V18.3103H54.9708C55.0363 19.6276 55.3256 20.5936 55.8387 21.2084C56.3518 21.8121 57.1432 22.114 58.2131 22.114C59.7632 22.114 61.0569 21.5816 62.0939 20.5168L63.9116 23.3325C63.3439 24.1229 62.5197 24.765 61.439 25.259C60.3582 25.742 59.1847 25.9835 57.9183 25.9835ZM55.0036 15.05H59.6377V14.6219C59.6159 13.5571 59.4412 12.7503 59.1137 12.2014C58.7862 11.6525 58.2185 11.3781 57.4107 11.3781C56.6029 11.3781 56.0134 11.669 55.6422 12.2508C55.282 12.8326 55.0691 13.7657 55.0036 15.05Z" fill="black"/>
<path d="M72.9669 19.1172H71.7552V25.6542H67.1374V7.83787H71.7552V14.5231H72.9014L75.5869 7.83787H81.4001L76.7332 16.0545L81.7603 25.6542H75.6197L72.9669 19.1172Z" fill="black"/>
<path d="M92.4696 7.83787H97.0873V25.6542H92.4696V14.7042L88.3431 25.6542H83.6926V7.83787H88.3431V18.7714L92.4696 7.83787Z" fill="black"/>
<path d="M106.88 22.114C108.222 22.114 108.905 21.2358 108.926 19.4794H113.282C113.26 21.4224 112.665 22.9922 111.497 24.1887C110.329 25.3853 108.823 25.9835 106.978 25.9835C104.696 25.9835 102.955 25.27 101.754 23.8429C100.553 22.4159 99.942 20.3137 99.9202 17.5364V16.1203C99.9202 13.3211 100.51 11.186 101.689 9.71501C102.879 8.24404 104.631 7.50855 106.945 7.50855C108.899 7.50855 110.438 8.1178 111.563 9.33629C112.687 10.5438 113.26 12.2618 113.282 14.4902H108.926C108.915 13.4912 108.752 12.7228 108.435 12.1849C108.119 11.647 107.595 11.3781 106.863 11.3781C106.055 11.3781 105.477 11.669 105.127 12.2508C104.778 12.8216 104.592 13.9358 104.571 15.5934V17.4047C104.571 18.8537 104.642 19.8691 104.784 20.4509C104.925 21.0217 105.16 21.4444 105.488 21.7188C105.815 21.9823 106.279 22.114 106.88 22.114Z" fill="black"/>
<path d="M128.658 11.6745H124.106V25.6542H119.472V11.6745H114.952V7.83787H128.658V11.6745Z" fill="black"/>
<path d="M139.286 25.6542C139.155 25.3798 139.024 24.9187 138.893 24.2711C138.063 25.4127 136.939 25.9835 135.519 25.9835C134.035 25.9835 132.801 25.4896 131.819 24.5016C130.847 23.5136 130.361 22.2347 130.361 20.665C130.361 18.7988 130.951 17.3553 132.13 16.3344C133.32 15.3135 135.028 14.7921 137.255 14.7701H138.663V13.3376C138.663 12.5362 138.527 11.9709 138.254 11.6415C137.981 11.3122 137.583 11.1476 137.059 11.1476C135.901 11.1476 135.323 11.8282 135.323 13.1894H130.689C130.689 11.5427 131.3 10.187 132.523 9.12223C133.756 8.04644 135.312 7.50855 137.19 7.50855C139.133 7.50855 140.634 8.019 141.693 9.0399C142.763 10.0498 143.298 11.4988 143.298 13.387V21.7682C143.319 23.305 143.538 24.5071 143.953 25.3743V25.6542H139.286ZM136.551 22.3281C137.064 22.3281 137.501 22.2238 137.861 22.0152C138.221 21.8066 138.489 21.5596 138.663 21.2742V17.5693H137.55C136.764 17.5693 136.142 17.8218 135.683 18.3268C135.236 18.8317 135.012 19.5069 135.012 20.3521C135.012 21.6694 135.525 22.3281 136.551 22.3281Z" fill="black"/>
<path d="M160 25.6542H155.366V18.8208H151.289V25.6542H146.638V7.83787H151.289V14.9677H155.366V7.83787H160V25.6542Z" fill="black"/>
</svg>
